<svg width="24" height="24" viewBox="0 0 24 24" fill="none" xmlns="http://www.w3.org/2000/svg">
<path d="M17.69 5.22984C17.4735 5.22689 17.2609 5.28822 17.0792 5.40607C16.8975 5.52392 16.7549 5.693 16.6693 5.89193C16.5837 6.09085 16.559 6.3107 16.5983 6.52366C16.6377 6.73661 16.7393 6.93312 16.8903 7.08834C17.0413 7.24356 17.235 7.3505 17.4468 7.39566C17.6586 7.44082 17.879 7.42217 18.0802 7.34205C18.2814 7.26193 18.4543 7.12395 18.5771 6.94556C18.6999 6.76717 18.767 6.55638 18.77 6.33984V6.30984C18.7674 6.02421 18.6528 5.75102 18.4508 5.54905C18.2488 5.34707 17.9756 5.23245 17.69 5.22984Z" stroke="#333333" stroke-linecap="round" stroke-linejoin="round"/>
<path d="M20.275 2.74983H3.725C3.46414 2.75636 3.21616 2.86459 3.034 3.05142C2.85184 3.23825 2.74992 3.48889 2.75 3.74983V20.2998C2.75 20.565 2.85536 20.8194 3.04289 21.0069C3.23043 21.1945 3.48478 21.2998 3.75 21.2998H20.3C20.5652 21.2998 20.8196 21.1945 21.0071 21.0069C21.1946 20.8194 21.3 20.565 21.3 20.2998V3.72483C21.2968 3.5935 21.2677 3.46409 21.2144 3.344C21.1611 3.22391 21.0847 3.1155 20.9895 3.02495C20.8943 2.93441 20.7822 2.86351 20.6596 2.8163C20.537 2.76909 20.4063 2.74651 20.275 2.74983V2.74983Z" stroke="#333333" stroke-linecap="round" stroke-linejoin="round"/>
<path d="M12 7.85986C11.1812 7.85986 10.3807 8.10267 9.69993 8.55758C9.01911 9.01249 8.48847 9.65907 8.17513 10.4156C7.86178 11.172 7.77979 12.0045 7.93954 12.8075C8.09928 13.6106 8.49358 14.3483 9.07256 14.9273C9.65155 15.5063 10.3892 15.9006 11.1923 16.0603C11.9954 16.2201 12.8278 16.1381 13.5843 15.8247C14.3408 15.5114 14.9874 14.9807 15.4423 14.2999C15.8972 13.6191 16.14 12.8187 16.14 11.9999V11.9999C16.14 10.9019 15.7038 9.84884 14.9274 9.07244C14.151 8.29604 13.098 7.85986 12 7.85986V7.85986Z" stroke="#333333" stroke-linecap="round" stroke-linejoin="round"/>
</svg>
