<svg width="24" height="24" viewBox="0 0 24 24" fill="none" xmlns="http://www.w3.org/2000/svg">
<path d="M12 21.2498V9.28476C12 8.95144 12.0657 8.62139 12.1934 8.3135C12.3212 8.00562 12.5083 7.72594 12.7443 7.49047C12.9802 7.25501 13.2602 7.06839 13.5684 6.94129C13.8765 6.81419 14.2067 6.7491 14.54 6.74976C15.785 6.74976 16.565 7.11976 17.1 7.80976M9.85001 11.6448H14.925" stroke="#333333" stroke-linecap="round" stroke-linejoin="round"/>
<path d="M3.73999 2.74976C3.47477 2.74976 3.22042 2.85511 3.03288 3.04265C2.84535 3.23019 2.73999 3.48454 2.73999 3.74976V3.74976V20.2498C2.73999 20.515 2.84535 20.7693 3.03288 20.9569C3.22042 21.1444 3.47477 21.2498 3.73999 21.2498H20.26C20.5252 21.2498 20.7796 21.1444 20.9671 20.9569C21.1546 20.7693 21.26 20.515 21.26 20.2498V3.74976C21.26 3.48454 21.1546 3.23019 20.9671 3.04265C20.7796 2.85511 20.5252 2.74976 20.26 2.74976H3.73999Z" stroke="#333333" stroke-linecap="round" stroke-linejoin="round"/>
</svg>
