<svg width="24" height="24" viewBox="0 0 24 24" fill="none" xmlns="http://www.w3.org/2000/svg">
<path d="M19.37 8.2747V8.7747C19.37 13.8097 15.55 19.5797 8.56 19.5797C6.49647 19.5842 4.47677 18.9845 2.75 17.8547C3.04989 17.8954 3.35239 17.9138 3.655 17.9097C5.3655 17.9144 7.02791 17.3438 8.375 16.2897C7.58034 16.278 6.80958 16.0161 6.17228 15.5413C5.53498 15.0664 5.06355 14.4028 4.825 13.6447C5.06171 13.6949 5.30303 13.72 5.545 13.7197C5.88288 13.7198 6.21923 13.6744 6.545 13.5847C5.68429 13.4131 4.90996 12.9478 4.3545 12.2683C3.79904 11.5888 3.49698 10.7373 3.5 9.8597V9.8097C4.0266 10.1039 4.61698 10.2652 5.22 10.2797C4.4173 9.75148 3.84659 8.93669 3.62448 8.0018C3.40238 7.06692 3.54564 6.0825 4.025 5.2497C4.98013 6.42445 6.17179 7.38503 7.52252 8.06901C8.87325 8.75299 10.3528 9.14505 11.865 9.2197C11.7901 8.93591 11.7548 8.64315 11.76 8.3497C11.7318 7.57415 11.9434 6.80878 12.3659 6.15778C12.7883 5.50678 13.4011 5.00181 14.1209 4.71161C14.8407 4.42141 15.6324 4.36009 16.3882 4.53601C17.1441 4.71192 17.8273 5.11652 18.345 5.6947C19.1959 5.52298 20.0121 5.21035 20.76 4.7697C20.4764 5.66538 19.873 6.42535 19.065 6.9047C19.8198 6.80069 20.5557 6.58852 21.25 6.2747C20.7468 7.04752 20.1102 7.72472 19.37 8.2747V8.2747Z" stroke="#333333" stroke-linecap="round" stroke-linejoin="round"/>
</svg>
