<svg width="24" height="24" viewBox="0 0 24 24" fill="none" xmlns="http://www.w3.org/2000/svg">
<path d="M21.556 7.19679C21.4421 6.77342 21.2189 6.38741 20.9089 6.0774C20.5989 5.76738 20.2129 5.54423 19.7895 5.43029C18.6325 4.98329 7.4235 4.76429 4.1715 5.44279C3.74808 5.55677 3.36202 5.78 3.052 6.09011C2.74198 6.40022 2.51887 6.78633 2.405 7.20979C1.8825 9.50129 1.843 14.4553 2.418 16.7983C2.53194 17.2217 2.75509 17.6077 3.06511 17.9177C3.37512 18.2277 3.76114 18.4508 4.1845 18.5648C6.476 19.0923 17.37 19.1663 19.8025 18.5648C20.2259 18.4508 20.6119 18.2277 20.9219 17.9177C21.2319 17.6077 21.4551 17.2217 21.569 16.7983C22.126 14.3018 22.1655 9.65479 21.556 7.19679V7.19679Z" stroke="#333333" stroke-linecap="round" stroke-linejoin="round"/>
<path d="M15.2835 11.9972L10.06 9.00171V14.9927L15.2835 11.9972Z" stroke="#333333" stroke-linecap="round" stroke-linejoin="round"/>
</svg>
