<svg width="20" height="13" viewBox="0 0 20 13" fill="none" xmlns="http://www.w3.org/2000/svg">
<path d="M1.37722 3.3069L10.4659 13L19.6158 3.3646C19.8643 3.10198 20.0009 2.74899 19.9954 2.3833C19.9898 2.01761 19.8427 1.66916 19.5863 1.41462C19.3299 1.16007 18.9853 1.02028 18.6283 1.02599C18.2712 1.0317 17.931 1.18245 17.6824 1.44508L10.4785 9.03538L3.31479 1.39962C3.06788 1.13543 2.72861 0.982529 2.3716 0.974558C2.01458 0.966586 1.66908 1.10419 1.41109 1.35711C1.15311 1.61003 1.00377 1.95754 0.995931 2.32319C0.988092 2.68884 1.1224 3.04268 1.3693 3.30687L1.37722 3.3069Z" fill="#464E2E"/>
</svg>
