<svg width="23" height="23" viewBox="0 0 23 23" fill="none" xmlns="http://www.w3.org/2000/svg">
<path d="M9.35532 1.47344C10.9142 1.47202 12.4384 1.93239 13.7352 2.79633C15.032 3.66026 16.0431 4.88894 16.6407 6.32693C17.2382 7.76491 17.3953 9.3476 17.092 10.8748C16.7888 12.4019 16.0389 13.805 14.9371 14.9064C13.8353 16.0078 12.4313 16.758 10.9025 17.0623C9.37371 17.3666 7.78892 17.2111 6.34861 16.6157C4.9083 16.0202 3.67718 15.0114 2.81099 13.717C1.9448 12.4226 1.48246 10.9007 1.48246 9.34375C1.49191 7.26056 2.32418 5.26528 3.79838 3.79156C5.27258 2.31784 7.26956 1.48478 9.35532 1.47344ZM9.35532 0C7.50501 0 5.69626 0.548001 4.15778 1.57471C2.61931 2.60141 1.42022 4.0607 0.712135 5.76805C0.00405364 7.4754 -0.181213 9.35412 0.179764 11.1666C0.540741 12.9791 1.43175 14.644 2.74011 15.9508C4.04848 17.2575 5.71543 18.1474 7.53019 18.508C9.34494 18.8685 11.226 18.6835 12.9354 17.9762C14.6449 17.269 16.106 16.0714 17.134 14.5349C18.162 12.9983 18.7106 11.1918 18.7106 9.34375C18.7106 6.86563 17.725 4.48901 15.9705 2.73672C14.2161 0.984428 11.8365 0 9.35532 0Z" fill="#333333"/>
<path d="M22.791 21.7709L17.4872 16.4378L16.4653 17.4512L21.7691 22.7844C21.8357 22.8514 21.9149 22.9046 22.0021 22.9411C22.0894 22.9775 22.1829 22.9965 22.2775 22.9968C22.372 22.9971 22.4657 22.9789 22.5532 22.943C22.6407 22.9072 22.7203 22.8545 22.7874 22.788C22.8545 22.7214 22.9078 22.6423 22.9443 22.5552C22.9808 22.4681 22.9997 22.3746 23.0001 22.2802C23.0004 22.1857 22.9821 22.0922 22.9462 22.0048C22.9103 21.9174 22.8576 21.8379 22.791 21.7709Z" fill="#333333"/>
</svg>
