<svg width="18" height="18" viewBox="0 0 18 18" fill="none" xmlns="http://www.w3.org/2000/svg">
<path d="M10.3226 8.9796L17.7836 1.53856C17.931 1.36685 18.0081 1.14597 17.9993 0.920067C17.9906 0.694164 17.8967 0.479874 17.7364 0.320018C17.5761 0.160161 17.3612 0.0665128 17.1347 0.0577872C16.9082 0.0490615 16.6868 0.125901 16.5146 0.272951L9.05359 7.714L1.59259 0.263975C1.42312 0.0949546 1.19326 0 0.953589 0C0.713918 0 0.484062 0.0949546 0.314589 0.263975C0.145116 0.432995 0.0499066 0.662235 0.0499066 0.901266C0.0499066 1.1403 0.145116 1.36954 0.314589 1.53856L7.78459 8.9796L0.314589 16.4206C0.220376 16.5011 0.143857 16.6001 0.0898363 16.7115C0.0358154 16.8229 0.00545822 16.9441 0.000670672 17.0678C-0.00411687 17.1914 0.016768 17.3146 0.0620152 17.4298C0.107262 17.545 0.175895 17.6496 0.263604 17.7371C0.351313 17.8246 0.456206 17.893 0.571698 17.9381C0.687191 17.9833 0.81079 18.0041 0.934737 17.9993C1.05868 17.9946 1.1803 17.9643 1.29196 17.9104C1.40362 17.8565 1.50291 17.7802 1.58359 17.6863L9.05359 10.2452L16.5146 17.6863C16.6868 17.8333 16.9082 17.9101 17.1347 17.9014C17.3612 17.8927 17.5761 17.799 17.7364 17.6392C17.8967 17.4793 17.9906 17.265 17.9993 17.0391C18.0081 16.8132 17.931 16.5924 17.7836 16.4206L10.3226 8.9796Z" fill="#333333"/>
</svg>
