<svg width="24" height="18" viewBox="0 0 24 18" fill="none" xmlns="http://www.w3.org/2000/svg">
<path d="M11.6 18H0.4C0.293913 18 0.192172 17.9138 0.117157 17.7604C0.0421427 17.6069 0 17.3988 0 17.1818C0 16.9648 0.0421427 16.7567 0.117157 16.6033C0.192172 16.4498 0.293913 16.3636 0.4 16.3636H11.6C11.7061 16.3636 11.8078 16.4498 11.8828 16.6033C11.9579 16.7567 12 16.9648 12 17.1818C12 17.3988 11.9579 17.6069 11.8828 17.7604C11.8078 17.9138 11.7061 18 11.6 18Z" fill="#333333"/>
<path d="M23.2 9.81819H0.8C0.587827 9.81819 0.384344 9.73199 0.234315 9.57855C0.0842854 9.42511 0 9.217 0 9.00001C0 8.78301 0.0842854 8.5749 0.234315 8.42146C0.384344 8.26802 0.587827 8.18182 0.8 8.18182H23.2C23.4122 8.18182 23.6157 8.26802 23.7657 8.42146C23.9157 8.5749 24 8.78301 24 9.00001C24 9.217 23.9157 9.42511 23.7657 9.57855C23.6157 9.73199 23.4122 9.81819 23.2 9.81819Z" fill="#333333"/>
<path d="M23.2 1.63636H0.8C0.587827 1.63636 0.384344 1.55016 0.234315 1.39672C0.0842854 1.24328 0 1.03518 0 0.818181C0 0.601186 0.0842854 0.393079 0.234315 0.23964C0.384344 0.0862012 0.587827 0 0.8 0H23.2C23.4122 0 23.6157 0.0862012 23.7657 0.23964C23.9157 0.393079 24 0.601186 24 0.818181C24 1.03518 23.9157 1.24328 23.7657 1.39672C23.6157 1.55016 23.4122 1.63636 23.2 1.63636Z" fill="#333333"/>
</svg>
