<svg width="32" height="24" viewBox="0 0 32 24" fill="none" xmlns="http://www.w3.org/2000/svg">
<path d="M31.9742 3.07863C31.9053 2.6371 31.705 2.22712 31.3999 1.90306C31.0948 1.579 30.6992 1.35617 30.2657 1.26412L24.9871 0.0937647C24.421 -0.0307909 23.835 -0.0312584 23.2687 0.0923933C22.7025 0.216045 22.1691 0.460933 21.7048 0.810496L6.1028 12.2782L1.73244 12.0967C1.38112 12.0841 1.03476 12.1834 0.742569 12.3806C0.450378 12.5778 0.227206 12.8629 0.104751 13.1954C-0.0177031 13.5278 -0.0332139 13.8908 0.060422 14.2326C0.154058 14.5745 0.35208 14.8779 0.626361 15.0998L5.12261 18.6653C5.66216 19.3276 6.02186 19.2006 14.9514 14.2923L15.7877 22.8386C15.8016 23.0718 15.8809 23.2962 16.0162 23.4857C16.1515 23.6752 16.3373 23.822 16.5521 23.9092C16.7066 23.9708 16.8715 24.0016 17.0377 23.9999C17.3721 23.9896 17.6916 23.8575 17.9369 23.628L20.0861 21.6501C20.3001 21.4501 20.4451 21.1862 20.4998 20.8971L22.4692 10.1008C25.6795 8.28628 28.7189 6.58064 30.8861 5.3377C31.2739 5.11766 31.5858 4.78346 31.7802 4.37978C31.9747 3.9761 32.0423 3.52216 31.9742 3.07863ZM29.9959 3.75907C27.7478 5.04738 24.6004 6.85281 21.2192 8.72176L20.8505 8.93043L18.7552 20.4254L17.4334 21.6411L16.4442 11.3891L15.2482 12.006C8.80055 15.635 6.65134 16.6875 5.91395 17.0141L2.04718 13.9203L6.61537 14.1199L22.8019 2.27118C23.0563 2.07927 23.348 1.94371 23.6579 1.87336C23.9679 1.803 24.289 1.79944 24.6004 1.86291L29.861 3.00605C29.9421 3.02088 30.0163 3.06144 30.0729 3.12182C30.1295 3.18221 30.1656 3.25926 30.1757 3.34174C30.1942 3.42156 30.1867 3.50529 30.1543 3.58047C30.1219 3.65565 30.0664 3.71829 29.9959 3.75907Z" fill="#464E2E"/>
<path d="M6.1028 7.05248L9.30413 7.95974L10.7789 6.88011L7.1819 5.82769L8.80055 4.82971L13.7194 4.68455L15.7877 3.16943L8.80055 3.38717C8.58027 3.37515 8.36135 3.42879 8.17108 3.54141L5.80605 4.92951C5.61052 5.04637 5.45366 5.21901 5.35523 5.42567C5.2568 5.63233 5.22121 5.86377 5.25295 6.0908C5.28468 6.31784 5.38232 6.53032 5.53356 6.70146C5.6848 6.87259 5.88287 6.99474 6.1028 7.05248Z" fill="#464E2E"/>
</svg>
