<svg width="20" height="24" viewBox="0 0 20 24" fill="none" xmlns="http://www.w3.org/2000/svg">
<path d="M19.4643 4.29091C17.8457 3.85106 16.2644 3.27953 14.7357 2.58182C13.2317 1.91754 11.7799 1.13708 10.3929 0.247273L10 0L9.61429 0.254545C8.22726 1.14435 6.7754 1.92481 5.27143 2.58909C3.74021 3.28469 2.15653 3.85379 0.535714 4.29091L0 4.42909V10.4945C0 20.2327 9.66429 23.8764 9.75714 23.9127L10 24L10.2429 23.9127C10.3429 23.9127 20 20.24 20 10.4945V4.42909L19.4643 4.29091ZM18.5714 10.4945C18.5714 18.4945 11.4286 21.8473 10 22.4436C8.57143 21.8473 1.42857 18.4873 1.42857 10.4945V5.55636C2.93534 5.11532 4.41029 4.56856 5.84286 3.92C7.27551 3.28945 8.66443 2.5605 10 1.73818C11.3356 2.5605 12.7245 3.28945 14.1571 3.92C15.5897 4.56856 17.0647 5.11532 18.5714 5.55636V10.4945Z" fill="#464E2E"/>
<path d="M4.91428 11.1782C4.77764 11.059 4.60187 10.9968 4.4221 11.0038C4.24233 11.0109 4.0718 11.0868 3.94459 11.2163C3.81738 11.3458 3.74286 11.5195 3.73591 11.7025C3.72897 11.8855 3.79012 12.0645 3.90714 12.2036L8.19285 16.5673L16 8.92364C16.1364 8.78862 16.2145 8.60396 16.2172 8.41028C16.2199 8.21661 16.1469 8.02979 16.0143 7.89091C15.8817 7.75203 15.7003 7.67248 15.5101 7.66975C15.3199 7.66702 15.1364 7.74134 15 7.87636L8.23571 14.56L4.91428 11.1782Z" fill="#464E2E"/>
</svg>
