<svg width="18" height="18" viewBox="0 0 18 18" fill="none" xmlns="http://www.w3.org/2000/svg">
<path d="M9 18C8.8757 17.9996 8.75502 17.9535 8.65682 17.869C5.52882 15.175 3.37409 12.8551 1.86635 10.5663C-0.0577072 7.64152 -0.496528 4.9412 0.561142 2.54023C1.31501 0.825247 3.48099 -0.577919 6.01264 0.239036C7.2197 0.625523 8.27284 1.45436 9 2.59012C9.72716 1.45436 10.7803 0.625523 11.9874 0.239036C14.5134 -0.565446 16.685 0.825247 17.4389 2.54023C18.4965 4.9412 18.0577 7.64152 16.1336 10.5663C14.6259 12.8551 12.4712 15.175 9.34318 17.869C9.24498 17.9535 9.1243 17.9996 9 18ZM4.57241 1.25555C3.97002 1.22956 3.37262 1.38592 2.84433 1.70784C2.31604 2.02976 1.87682 2.50508 1.57381 3.08279C0.70179 5.06593 1.0956 7.27357 2.77775 9.82422C4.56542 12.3802 6.65873 14.6545 9 16.5844C11.3409 14.6564 13.4342 12.3842 15.2222 9.83045C16.91 7.27357 17.2982 5.06593 16.4262 3.08902C15.8636 1.84176 14.1758 0.850192 12.2968 1.4364C11.6943 1.63378 11.1357 1.96881 10.6571 2.41991C10.1784 2.87102 9.79025 3.42822 9.51758 4.05565C9.4752 4.17003 9.40309 4.26786 9.31043 4.33671C9.21777 4.40556 9.10874 4.44232 8.99719 4.44232C8.88564 4.44232 8.7766 4.40556 8.68394 4.33671C8.59128 4.26786 8.51918 4.17003 8.47679 4.05565C8.20617 3.42665 7.81869 2.86815 7.33973 2.41676C6.86078 1.96537 6.30117 1.63129 5.69759 1.4364C5.3319 1.31866 4.95322 1.2578 4.57241 1.25555Z" fill="#333333"/>
</svg>
