<svg width="20" height="18" viewBox="0 0 20 18" fill="none" xmlns="http://www.w3.org/2000/svg">
<path d="M10.3077 18C10.1738 17.9996 10.0439 17.9535 9.93812 17.869C6.5695 15.175 4.24903 12.8551 2.62531 10.5663C0.55324 7.64152 0.0806645 4.9412 1.21969 2.54023C2.03156 0.825248 4.36414 -0.577919 7.09054 0.239036C8.39045 0.625523 9.5246 1.45436 10.3077 2.59012C11.0908 1.45436 12.2249 0.625523 13.5248 0.239036C16.2452 -0.565446 18.5838 0.825248 19.3957 2.54023C20.5347 4.9412 20.0622 7.64152 17.9901 10.5663C16.3664 12.8551 14.0459 15.175 10.6773 17.869C10.5715 17.9535 10.4416 17.9996 10.3077 18ZM5.53952 1.25555C4.89079 1.22956 4.24744 1.38592 3.67851 1.70784C3.10958 2.02976 2.63657 2.50508 2.31025 3.08279C1.37116 5.06593 1.79527 7.27357 3.60681 9.82422C5.53199 12.3802 7.78633 14.6545 10.3077 16.5844C12.8287 14.6564 15.083 12.3842 17.0086 9.83045C18.8262 7.27357 19.2442 5.06593 18.3051 3.08902C17.6993 1.84176 15.8817 0.850193 13.8581 1.4364C13.2092 1.63378 12.6077 1.96881 12.0922 2.41991C11.5767 2.87102 11.1587 3.42822 10.8651 4.05565C10.8194 4.17003 10.7418 4.26786 10.642 4.33671C10.5422 4.40556 10.4248 4.44232 10.3047 4.44232C10.1845 4.44232 10.0671 4.40556 9.96733 4.33671C9.86754 4.26786 9.78989 4.17003 9.74424 4.05565C9.45281 3.42665 9.03551 2.86815 8.51972 2.41676C8.00392 1.96537 7.40127 1.63129 6.75126 1.4364C6.35743 1.31866 5.94962 1.2578 5.53952 1.25555Z" fill="#464E2E"/>
</svg>
