<svg width="22" height="20" viewBox="0 0 22 20" fill="none" xmlns="http://www.w3.org/2000/svg">
<path d="M20.3762 3.5401C19.5386 1.82521 17.1258 0.422111 14.3191 1.23902C12.9779 1.62549 11.8078 2.45428 10.9999 3.58999C10.1919 2.45428 9.02178 1.62549 7.68062 1.23902C4.86771 0.434583 2.46111 1.82521 1.62348 3.5401C0.44831 5.94095 0.935882 8.64113 3.0737 11.5658C4.74894 13.8544 7.14304 16.1742 10.6186 18.8681C10.7284 18.9536 10.8637 19 11.003 19C11.1423 19 11.2776 18.9536 11.3874 18.8681C14.8567 16.1804 17.257 13.8793 18.9323 11.5658C21.0638 8.64113 21.5514 5.94095 20.3762 3.5401Z" fill="#E7E3D4" stroke="#333333"/>
</svg>
