<svg width="16" height="18" viewBox="0 0 16 18" fill="none" xmlns="http://www.w3.org/2000/svg">
<path d="M12 5.60563V3.94366C12 3.42577 11.8965 2.91295 11.6955 2.43449C11.4945 1.95602 11.1999 1.52127 10.8284 1.15507C10.457 0.788869 10.016 0.498381 9.53073 0.300193C9.04543 0.102006 8.52529 0 8 0C7.47471 0 6.95457 0.102006 6.46927 0.300193C5.98396 0.498381 5.54301 0.788869 5.17157 1.15507C4.80014 1.52127 4.5055 1.95602 4.30448 2.43449C4.10346 2.91295 4 3.42577 4 3.94366V7.88732C4 8.03674 4.0602 8.18004 4.16737 8.28569C4.27453 8.39135 4.41988 8.4507 4.57143 8.4507C4.72298 8.4507 4.86833 8.39135 4.97549 8.28569C5.08265 8.18004 5.14286 8.03674 5.14286 7.88732V6.73239H9.71429V5.60563H5.14286V3.94366C5.14286 3.19657 5.44388 2.48008 5.9797 1.95181C6.51551 1.42354 7.24224 1.12676 8 1.12676C8.75776 1.12676 9.48449 1.42354 10.0203 1.95181C10.5561 2.48008 10.8571 3.19657 10.8571 3.94366V7.85915C10.8571 8.00857 10.9173 8.15187 11.0245 8.25752C11.1317 8.36318 11.277 8.42253 11.4286 8.42253C11.5801 8.42253 11.7255 8.36318 11.8326 8.25752C11.9398 8.15187 12 8.00857 12 7.85915V6.73239H14.8571V16.8732H1.14286V6.73239H2.85714V5.60563H0V16.9239C0 17.2093 0.114989 17.483 0.319672 17.6848C0.524354 17.8866 0.801964 18 1.09143 18H14.9086C15.198 18 15.4756 17.8866 15.6803 17.6848C15.885 17.483 16 17.2093 16 16.9239V5.60563H12Z" fill="black"/>
</svg>
