<svg width="22" height="24" viewBox="0 0 22 24" fill="none" xmlns="http://www.w3.org/2000/svg">
<path d="M21.384 10.3907C21.3571 10.2035 21.2575 10.0347 21.1072 9.92154C20.957 9.80836 20.7683 9.76002 20.5826 9.78717C20.397 9.81432 20.2297 9.91472 20.1175 10.0663C20.0053 10.2179 19.9573 10.4082 19.9843 10.5954C20.0547 11.0461 20.0922 11.5015 20.0962 11.9578C20.093 13.7805 19.5516 15.5609 18.5411 17.0721C17.5307 18.5833 16.0969 19.7567 14.4226 20.4428C12.7483 21.1289 10.9094 21.2965 9.14029 20.9243C7.37119 20.5522 5.75205 19.657 4.48932 18.3531H8.24058C8.42619 18.3531 8.6042 18.2787 8.73545 18.1463C8.8667 18.0139 8.94044 17.8344 8.94044 17.6472C8.94044 17.46 8.8667 17.2804 8.73545 17.148C8.6042 17.0157 8.42619 16.9413 8.24058 16.9413H1.94182V23.2942C1.94182 23.4815 2.01555 23.661 2.1468 23.7934C2.27805 23.9258 2.45607 24.0001 2.64168 24.0001C2.8273 24.0001 3.00531 23.9258 3.13656 23.7934C3.26781 23.661 3.34154 23.4815 3.34154 23.2942V19.2001C4.87224 20.8478 6.88507 21.9588 9.08615 22.3708C11.2872 22.7829 13.5613 22.4745 15.5763 21.4907C17.5913 20.5068 19.2417 18.8991 20.2865 16.9021C21.3313 14.9052 21.7159 12.6237 21.384 10.3907Z" fill="#464E2E"/>
<path d="M19.4384 4.21292e-05C19.2482 -0.00200198 19.0646 0.0704086 18.9263 0.20205C18.7879 0.333691 18.7056 0.514307 18.6965 0.705925V4.82123C17.2748 3.24215 15.4117 2.13502 13.3532 1.64597C11.2948 1.15692 9.13763 1.30894 7.16658 2.08197C5.19554 2.855 3.50323 4.21269 2.31304 5.97584C1.12285 7.73899 0.490724 9.82471 0.500103 11.9577C0.499125 12.5441 0.545941 13.1296 0.640075 13.7083C0.666904 13.8753 0.752327 14.0271 0.880785 14.1359C1.00924 14.2447 1.17219 14.3034 1.33994 14.3012H1.45192C1.63464 14.2701 1.79766 14.1672 1.90525 14.015C2.01283 13.8628 2.05618 13.6738 2.0258 13.4895C1.94215 12.9832 1.90002 12.4709 1.89983 11.9577C1.89983 9.52395 2.85838 7.18988 4.56463 5.46895C6.27087 3.74803 8.58504 2.78122 10.998 2.78122C12.2354 2.7756 13.4606 3.02718 14.5973 3.52025C15.734 4.01333 16.7577 4.73733 17.6047 5.64711H13.8395C13.6539 5.64711 13.4758 5.72148 13.3446 5.85386C13.2133 5.98624 13.1396 6.16578 13.1396 6.35299C13.1396 6.5402 13.2133 6.71975 13.3446 6.85213C13.4758 6.98451 13.6539 7.05888 13.8395 7.05888H20.0962V0.705925C20.0966 0.525826 20.0286 0.352413 19.9063 0.221187C19.784 0.0899613 19.6166 0.0108478 19.4384 4.21292e-05Z" fill="#464E2E"/>
</svg>
