<svg width="16" height="18" viewBox="0 0 16 18" fill="none" xmlns="http://www.w3.org/2000/svg">
<path d="M8.19997 8.40001C9.03065 8.40001 9.84268 8.15368 10.5334 7.69218C11.2241 7.23068 11.7624 6.57473 12.0803 5.80728C12.3982 5.03983 12.4813 4.19534 12.3193 3.38062C12.1572 2.5659 11.7572 1.81753 11.1698 1.23015C10.5824 0.642773 9.83407 0.242762 9.01935 0.0807038C8.20463 -0.0813543 7.36015 0.00181979 6.5927 0.319708C5.82525 0.637596 5.1693 1.17592 4.7078 1.86661C4.2463 2.55729 3.99997 3.36932 3.99997 4.2C3.99997 5.31391 4.44247 6.3822 5.23012 7.16985C6.01777 7.95751 7.08606 8.40001 8.19997 8.40001ZM8.19997 1.2C8.79332 1.2 9.37333 1.37595 9.86668 1.70559C10.36 2.03524 10.7445 2.50377 10.9716 3.05195C11.1987 3.60013 11.2581 4.20333 11.1423 4.78527C11.0266 5.36722 10.7409 5.90177 10.3213 6.32133C9.90173 6.74088 9.36719 7.02661 8.78524 7.14236C8.2033 7.25812 7.6001 7.19871 7.05192 6.97164C6.50374 6.74458 6.03521 6.36006 5.70556 5.86672C5.37592 5.37337 5.19997 4.79335 5.19997 4.2C5.19997 3.40435 5.51604 2.64129 6.07865 2.07868C6.64126 1.51607 7.40432 1.2 8.19997 1.2Z" fill="#333333"/>
<path d="M15.682 12.822C14.7198 11.805 13.5602 10.9949 12.2743 10.4413C10.9884 9.88771 9.60302 9.60217 8.20297 9.60217C6.80292 9.60217 5.41758 9.88771 4.13164 10.4413C2.8457 10.9949 1.68618 11.805 0.723965 12.822C0.515352 13.0448 0.399491 13.3388 0.399965 13.644V16.8C0.399965 17.1183 0.526393 17.4235 0.751437 17.6485C0.976481 17.8736 1.28171 18 1.59997 18H14.8C15.1182 18 15.4235 17.8736 15.6485 17.6485C15.8735 17.4235 16 17.1183 16 16.8V13.644C16.0021 13.3396 15.8884 13.0458 15.682 12.822ZM14.8 16.8H1.59997V13.638C2.4503 12.7426 3.47394 12.0296 4.60858 11.5424C5.74322 11.0552 6.96514 10.8039 8.19997 10.8039C9.4348 10.8039 10.6567 11.0552 11.7914 11.5424C12.926 12.0296 13.9496 12.7426 14.8 13.638V16.8Z" fill="#333333"/>
</svg>
